<mxfile host="app.diagrams.net" agent="Mozilla/5.0 (Windows NT 10.0; Win64; x64) AppleWebKit/537.36 (KHTML, like Gecko) Chrome/136.0.0.0 Safari/537.36" version="27.0.9">
  <diagram id="C5RBs43oDa-KdzZeNtuy" name="Page-1">
    <mxGraphModel dx="1426" dy="1946" grid="1" gridSize="10" guides="1" tooltips="1" connect="1" arrows="1" fold="1" page="1" pageScale="1" pageWidth="827" pageHeight="1169" math="0" shadow="0">
      <root>
        <mxCell id="WIyWlLk6GJQsqaUBKTNV-0" />
        <mxCell id="WIyWlLk6GJQsqaUBKTNV-1" parent="WIyWlLk6GJQsqaUBKTNV-0" />
        <mxCell id="zkfFHV4jXpPFQw0GAbJ--0" value="Alimento" style="swimlane;fontStyle=2;align=center;verticalAlign=top;childLayout=stackLayout;horizontal=1;startSize=26;horizontalStack=0;resizeParent=1;resizeLast=0;collapsible=1;marginBottom=0;rounded=0;shadow=0;strokeWidth=1;" parent="WIyWlLk6GJQsqaUBKTNV-1" vertex="1">
          <mxGeometry x="490" y="17" width="220" height="312" as="geometry">
            <mxRectangle x="230" y="140" width="160" height="26" as="alternateBounds" />
          </mxGeometry>
        </mxCell>
        <mxCell id="zkfFHV4jXpPFQw0GAbJ--1" value="- nome: String" style="text;align=left;verticalAlign=top;spacingLeft=4;spacingRight=4;overflow=hidden;rotatable=0;points=[[0,0.5],[1,0.5]];portConstraint=eastwest;" parent="zkfFHV4jXpPFQw0GAbJ--0" vertex="1">
          <mxGeometry y="26" width="220" height="26" as="geometry" />
        </mxCell>
        <mxCell id="zkfFHV4jXpPFQw0GAbJ--2" value="- calorias: Double" style="text;align=left;verticalAlign=top;spacingLeft=4;spacingRight=4;overflow=hidden;rotatable=0;points=[[0,0.5],[1,0.5]];portConstraint=eastwest;rounded=0;shadow=0;html=0;" parent="zkfFHV4jXpPFQw0GAbJ--0" vertex="1">
          <mxGeometry y="52" width="220" height="26" as="geometry" />
        </mxCell>
        <mxCell id="zkfFHV4jXpPFQw0GAbJ--3" value="- proteinas: Double" style="text;align=left;verticalAlign=top;spacingLeft=4;spacingRight=4;overflow=hidden;rotatable=0;points=[[0,0.5],[1,0.5]];portConstraint=eastwest;rounded=0;shadow=0;html=0;" parent="zkfFHV4jXpPFQw0GAbJ--0" vertex="1">
          <mxGeometry y="78" width="220" height="26" as="geometry" />
        </mxCell>
        <mxCell id="cG4yYEKGRYoJy5BFDzFy-0" value="- carboidratos: Double" style="text;align=left;verticalAlign=top;spacingLeft=4;spacingRight=4;overflow=hidden;rotatable=0;points=[[0,0.5],[1,0.5]];portConstraint=eastwest;rounded=0;shadow=0;html=0;" parent="zkfFHV4jXpPFQw0GAbJ--0" vertex="1">
          <mxGeometry y="104" width="220" height="26" as="geometry" />
        </mxCell>
        <mxCell id="cG4yYEKGRYoJy5BFDzFy-1" value="- gorduras: Double" style="text;align=left;verticalAlign=top;spacingLeft=4;spacingRight=4;overflow=hidden;rotatable=0;points=[[0,0.5],[1,0.5]];portConstraint=eastwest;rounded=0;shadow=0;html=0;" parent="zkfFHV4jXpPFQw0GAbJ--0" vertex="1">
          <mxGeometry y="130" width="220" height="26" as="geometry" />
        </mxCell>
        <mxCell id="cG4yYEKGRYoJy5BFDzFy-2" value="- porcao: Unidade" style="text;align=left;verticalAlign=top;spacingLeft=4;spacingRight=4;overflow=hidden;rotatable=0;points=[[0,0.5],[1,0.5]];portConstraint=eastwest;rounded=0;shadow=0;html=0;" parent="zkfFHV4jXpPFQw0GAbJ--0" vertex="1">
          <mxGeometry y="156" width="220" height="26" as="geometry" />
        </mxCell>
        <mxCell id="cG4yYEKGRYoJy5BFDzFy-3" value="- pessoas: List&lt;Pessoa&gt;" style="text;align=left;verticalAlign=top;spacingLeft=4;spacingRight=4;overflow=hidden;rotatable=0;points=[[0,0.5],[1,0.5]];portConstraint=eastwest;rounded=0;shadow=0;html=0;" parent="zkfFHV4jXpPFQw0GAbJ--0" vertex="1">
          <mxGeometry y="182" width="220" height="26" as="geometry" />
        </mxCell>
        <mxCell id="cG4yYEKGRYoJy5BFDzFy-4" value="- itens: List&lt;ItemAlimento&gt;" style="text;align=left;verticalAlign=top;spacingLeft=4;spacingRight=4;overflow=hidden;rotatable=0;points=[[0,0.5],[1,0.5]];portConstraint=eastwest;rounded=0;shadow=0;html=0;" parent="zkfFHV4jXpPFQw0GAbJ--0" vertex="1">
          <mxGeometry y="208" width="220" height="26" as="geometry" />
        </mxCell>
        <mxCell id="STjrseQzjW_MM1RefdrY-9" value="" style="endArrow=none;html=1;rounded=0;entryX=1;entryY=1.037;entryDx=0;entryDy=0;entryPerimeter=0;" parent="zkfFHV4jXpPFQw0GAbJ--0" target="cG4yYEKGRYoJy5BFDzFy-4" edge="1">
          <mxGeometry relative="1" as="geometry">
            <mxPoint y="234" as="sourcePoint" />
            <mxPoint x="160" y="234" as="targetPoint" />
          </mxGeometry>
        </mxCell>
        <mxCell id="STjrseQzjW_MM1RefdrY-21" value="- create(Alimento): Alimento" style="text;align=left;verticalAlign=top;spacingLeft=4;spacingRight=4;overflow=hidden;rotatable=0;points=[[0,0.5],[1,0.5]];portConstraint=eastwest;rounded=0;shadow=0;html=0;" parent="zkfFHV4jXpPFQw0GAbJ--0" vertex="1">
          <mxGeometry y="234" width="220" height="26" as="geometry" />
        </mxCell>
        <mxCell id="STjrseQzjW_MM1RefdrY-23" value="- findAll(): List&lt;Alimento&gt;" style="text;align=left;verticalAlign=top;spacingLeft=4;spacingRight=4;overflow=hidden;rotatable=0;points=[[0,0.5],[1,0.5]];portConstraint=eastwest;rounded=0;shadow=0;html=0;" parent="zkfFHV4jXpPFQw0GAbJ--0" vertex="1">
          <mxGeometry y="260" width="220" height="26" as="geometry" />
        </mxCell>
        <mxCell id="STjrseQzjW_MM1RefdrY-22" value="- update(AlimentoUpdateDto): Void" style="text;align=left;verticalAlign=top;spacingLeft=4;spacingRight=4;overflow=hidden;rotatable=0;points=[[0,0.5],[1,0.5]];portConstraint=eastwest;rounded=0;shadow=0;html=0;" parent="zkfFHV4jXpPFQw0GAbJ--0" vertex="1">
          <mxGeometry y="286" width="220" height="26" as="geometry" />
        </mxCell>
        <mxCell id="y1dbTIo-UcdsSL2UEVHJ-3" style="edgeStyle=orthogonalEdgeStyle;shape=connector;rounded=0;orthogonalLoop=1;jettySize=auto;html=1;entryX=1;entryY=0.5;entryDx=0;entryDy=0;strokeColor=default;align=center;verticalAlign=middle;fontFamily=Helvetica;fontSize=11;fontColor=default;labelBackgroundColor=default;endArrow=classic;" parent="WIyWlLk6GJQsqaUBKTNV-1" source="zkfFHV4jXpPFQw0GAbJ--17" target="cG4yYEKGRYoJy5BFDzFy-0" edge="1">
          <mxGeometry relative="1" as="geometry" />
        </mxCell>
        <mxCell id="y1dbTIo-UcdsSL2UEVHJ-4" value="possui" style="edgeLabel;html=1;align=center;verticalAlign=middle;resizable=0;points=[];fontFamily=Helvetica;fontSize=11;fontColor=default;labelBackgroundColor=default;" parent="y1dbTIo-UcdsSL2UEVHJ-3" vertex="1" connectable="0">
          <mxGeometry x="-0.1609" y="-1" relative="1" as="geometry">
            <mxPoint as="offset" />
          </mxGeometry>
        </mxCell>
        <mxCell id="y1dbTIo-UcdsSL2UEVHJ-5" value="1..*" style="edgeLabel;html=1;align=center;verticalAlign=middle;resizable=0;points=[];fontFamily=Helvetica;fontSize=11;fontColor=default;labelBackgroundColor=default;" parent="y1dbTIo-UcdsSL2UEVHJ-3" vertex="1" connectable="0">
          <mxGeometry x="0.7663" y="-1" relative="1" as="geometry">
            <mxPoint x="5" as="offset" />
          </mxGeometry>
        </mxCell>
        <mxCell id="y1dbTIo-UcdsSL2UEVHJ-20" value="1" style="edgeLabel;html=1;align=center;verticalAlign=middle;resizable=0;points=[];fontFamily=Helvetica;fontSize=11;fontColor=default;labelBackgroundColor=default;" parent="y1dbTIo-UcdsSL2UEVHJ-3" vertex="1" connectable="0">
          <mxGeometry x="-0.8444" y="-3" relative="1" as="geometry">
            <mxPoint as="offset" />
          </mxGeometry>
        </mxCell>
        <mxCell id="0lct7mTjgLrh3pyMlzWK-0" style="edgeStyle=orthogonalEdgeStyle;rounded=0;orthogonalLoop=1;jettySize=auto;html=1;entryX=0.5;entryY=0;entryDx=0;entryDy=0;" parent="WIyWlLk6GJQsqaUBKTNV-1" source="zkfFHV4jXpPFQw0GAbJ--17" target="cG4yYEKGRYoJy5BFDzFy-33" edge="1">
          <mxGeometry relative="1" as="geometry" />
        </mxCell>
        <mxCell id="0lct7mTjgLrh3pyMlzWK-1" value="Possui" style="edgeLabel;html=1;align=center;verticalAlign=middle;resizable=0;points=[];" parent="0lct7mTjgLrh3pyMlzWK-0" vertex="1" connectable="0">
          <mxGeometry x="-0.0172" y="3" relative="1" as="geometry">
            <mxPoint as="offset" />
          </mxGeometry>
        </mxCell>
        <mxCell id="0lct7mTjgLrh3pyMlzWK-2" value="1" style="edgeLabel;html=1;align=center;verticalAlign=middle;resizable=0;points=[];" parent="0lct7mTjgLrh3pyMlzWK-0" vertex="1" connectable="0">
          <mxGeometry x="-0.799" y="1" relative="1" as="geometry">
            <mxPoint as="offset" />
          </mxGeometry>
        </mxCell>
        <mxCell id="0lct7mTjgLrh3pyMlzWK-3" value="1..*" style="edgeLabel;html=1;align=center;verticalAlign=middle;resizable=0;points=[];" parent="0lct7mTjgLrh3pyMlzWK-0" vertex="1" connectable="0">
          <mxGeometry x="0.7302" relative="1" as="geometry">
            <mxPoint as="offset" />
          </mxGeometry>
        </mxCell>
        <mxCell id="zkfFHV4jXpPFQw0GAbJ--17" value="ItemAlimento" style="swimlane;fontStyle=0;align=center;verticalAlign=top;childLayout=stackLayout;horizontal=1;startSize=26;horizontalStack=0;resizeParent=1;resizeLast=0;collapsible=1;marginBottom=0;rounded=0;shadow=0;strokeWidth=1;" parent="WIyWlLk6GJQsqaUBKTNV-1" vertex="1">
          <mxGeometry x="800" y="82" width="230" height="130" as="geometry">
            <mxRectangle x="550" y="140" width="160" height="26" as="alternateBounds" />
          </mxGeometry>
        </mxCell>
        <mxCell id="zkfFHV4jXpPFQw0GAbJ--18" value="- alimento: Alimento" style="text;align=left;verticalAlign=top;spacingLeft=4;spacingRight=4;overflow=hidden;rotatable=0;points=[[0,0.5],[1,0.5]];portConstraint=eastwest;" parent="zkfFHV4jXpPFQw0GAbJ--17" vertex="1">
          <mxGeometry y="26" width="230" height="26" as="geometry" />
        </mxCell>
        <mxCell id="zkfFHV4jXpPFQw0GAbJ--19" value="- refeicao: Refeicao" style="text;align=left;verticalAlign=top;spacingLeft=4;spacingRight=4;overflow=hidden;rotatable=0;points=[[0,0.5],[1,0.5]];portConstraint=eastwest;rounded=0;shadow=0;html=0;" parent="zkfFHV4jXpPFQw0GAbJ--17" vertex="1">
          <mxGeometry y="52" width="230" height="26" as="geometry" />
        </mxCell>
        <mxCell id="zkfFHV4jXpPFQw0GAbJ--20" value="- quantidade: Double" style="text;align=left;verticalAlign=top;spacingLeft=4;spacingRight=4;overflow=hidden;rotatable=0;points=[[0,0.5],[1,0.5]];portConstraint=eastwest;rounded=0;shadow=0;html=0;" parent="zkfFHV4jXpPFQw0GAbJ--17" vertex="1">
          <mxGeometry y="78" width="230" height="26" as="geometry" />
        </mxCell>
        <mxCell id="COkLb8HMXcyexw4MpFeS-0" value="" style="endArrow=none;html=1;rounded=0;entryX=1.002;entryY=1.09;entryDx=0;entryDy=0;entryPerimeter=0;exitX=-0.003;exitY=1.09;exitDx=0;exitDy=0;exitPerimeter=0;" parent="zkfFHV4jXpPFQw0GAbJ--17" source="zkfFHV4jXpPFQw0GAbJ--20" target="zkfFHV4jXpPFQw0GAbJ--20" edge="1">
          <mxGeometry width="50" height="50" relative="1" as="geometry">
            <mxPoint x="-20" y="128" as="sourcePoint" />
            <mxPoint x="30" y="78" as="targetPoint" />
          </mxGeometry>
        </mxCell>
        <mxCell id="COkLb8HMXcyexw4MpFeS-1" value="- create(ItemAlimentoDto): ItemAlimento" style="text;align=left;verticalAlign=top;spacingLeft=4;spacingRight=4;overflow=hidden;rotatable=0;points=[[0,0.5],[1,0.5]];portConstraint=eastwest;rounded=0;shadow=0;html=0;" parent="zkfFHV4jXpPFQw0GAbJ--17" vertex="1">
          <mxGeometry y="104" width="230" height="26" as="geometry" />
        </mxCell>
        <mxCell id="cG4yYEKGRYoJy5BFDzFy-5" value="Pessoa" style="swimlane;fontStyle=2;align=center;verticalAlign=top;childLayout=stackLayout;horizontal=1;startSize=26;horizontalStack=0;resizeParent=1;resizeLast=0;collapsible=1;marginBottom=0;rounded=0;shadow=0;strokeWidth=1;" parent="WIyWlLk6GJQsqaUBKTNV-1" vertex="1">
          <mxGeometry x="60" y="-10" width="300" height="416" as="geometry">
            <mxRectangle x="230" y="140" width="160" height="26" as="alternateBounds" />
          </mxGeometry>
        </mxCell>
        <mxCell id="cG4yYEKGRYoJy5BFDzFy-6" value="- nome: String" style="text;align=left;verticalAlign=top;spacingLeft=4;spacingRight=4;overflow=hidden;rotatable=0;points=[[0,0.5],[1,0.5]];portConstraint=eastwest;" parent="cG4yYEKGRYoJy5BFDzFy-5" vertex="1">
          <mxGeometry y="26" width="300" height="26" as="geometry" />
        </mxCell>
        <mxCell id="cG4yYEKGRYoJy5BFDzFy-7" value="- username: String" style="text;align=left;verticalAlign=top;spacingLeft=4;spacingRight=4;overflow=hidden;rotatable=0;points=[[0,0.5],[1,0.5]];portConstraint=eastwest;rounded=0;shadow=0;html=0;" parent="cG4yYEKGRYoJy5BFDzFy-5" vertex="1">
          <mxGeometry y="52" width="300" height="26" as="geometry" />
        </mxCell>
        <mxCell id="cG4yYEKGRYoJy5BFDzFy-8" value="- cpf: String" style="text;align=left;verticalAlign=top;spacingLeft=4;spacingRight=4;overflow=hidden;rotatable=0;points=[[0,0.5],[1,0.5]];portConstraint=eastwest;rounded=0;shadow=0;html=0;" parent="cG4yYEKGRYoJy5BFDzFy-5" vertex="1">
          <mxGeometry y="78" width="300" height="26" as="geometry" />
        </mxCell>
        <mxCell id="cG4yYEKGRYoJy5BFDzFy-9" value="- senha: String" style="text;align=left;verticalAlign=top;spacingLeft=4;spacingRight=4;overflow=hidden;rotatable=0;points=[[0,0.5],[1,0.5]];portConstraint=eastwest;rounded=0;shadow=0;html=0;" parent="cG4yYEKGRYoJy5BFDzFy-5" vertex="1">
          <mxGeometry y="104" width="300" height="26" as="geometry" />
        </mxCell>
        <mxCell id="cG4yYEKGRYoJy5BFDzFy-10" value="- idade: Integer" style="text;align=left;verticalAlign=top;spacingLeft=4;spacingRight=4;overflow=hidden;rotatable=0;points=[[0,0.5],[1,0.5]];portConstraint=eastwest;rounded=0;shadow=0;html=0;" parent="cG4yYEKGRYoJy5BFDzFy-5" vertex="1">
          <mxGeometry y="130" width="300" height="26" as="geometry" />
        </mxCell>
        <mxCell id="cG4yYEKGRYoJy5BFDzFy-11" value="- peso: Double" style="text;align=left;verticalAlign=top;spacingLeft=4;spacingRight=4;overflow=hidden;rotatable=0;points=[[0,0.5],[1,0.5]];portConstraint=eastwest;rounded=0;shadow=0;html=0;" parent="cG4yYEKGRYoJy5BFDzFy-5" vertex="1">
          <mxGeometry y="156" width="300" height="26" as="geometry" />
        </mxCell>
        <mxCell id="cG4yYEKGRYoJy5BFDzFy-12" value="- altura: Double" style="text;align=left;verticalAlign=top;spacingLeft=4;spacingRight=4;overflow=hidden;rotatable=0;points=[[0,0.5],[1,0.5]];portConstraint=eastwest;rounded=0;shadow=0;html=0;" parent="cG4yYEKGRYoJy5BFDzFy-5" vertex="1">
          <mxGeometry y="182" width="300" height="26" as="geometry" />
        </mxCell>
        <mxCell id="cG4yYEKGRYoJy5BFDzFy-13" value="- objetivos: List&lt;String&gt;" style="text;align=left;verticalAlign=top;spacingLeft=4;spacingRight=4;overflow=hidden;rotatable=0;points=[[0,0.5],[1,0.5]];portConstraint=eastwest;rounded=0;shadow=0;html=0;" parent="cG4yYEKGRYoJy5BFDzFy-5" vertex="1">
          <mxGeometry y="208" width="300" height="26" as="geometry" />
        </mxCell>
        <mxCell id="cG4yYEKGRYoJy5BFDzFy-14" value="- restricoesAlimentares: List&lt;Alimento&gt;" style="text;align=left;verticalAlign=top;spacingLeft=4;spacingRight=4;overflow=hidden;rotatable=0;points=[[0,0.5],[1,0.5]];portConstraint=eastwest;rounded=0;shadow=0;html=0;" parent="cG4yYEKGRYoJy5BFDzFy-5" vertex="1">
          <mxGeometry y="234" width="300" height="26" as="geometry" />
        </mxCell>
        <mxCell id="y1dbTIo-UcdsSL2UEVHJ-21" value="- planosAlimentares: List&lt;PlanoAlimentar&gt;" style="text;align=left;verticalAlign=top;spacingLeft=4;spacingRight=4;overflow=hidden;rotatable=0;points=[[0,0.5],[1,0.5]];portConstraint=eastwest;rounded=0;shadow=0;html=0;" parent="cG4yYEKGRYoJy5BFDzFy-5" vertex="1">
          <mxGeometry y="260" width="300" height="26" as="geometry" />
        </mxCell>
        <mxCell id="STjrseQzjW_MM1RefdrY-3" value="" style="endArrow=none;html=1;rounded=0;" parent="cG4yYEKGRYoJy5BFDzFy-5" edge="1">
          <mxGeometry relative="1" as="geometry">
            <mxPoint y="286" as="sourcePoint" />
            <mxPoint x="240" y="285" as="targetPoint" />
          </mxGeometry>
        </mxCell>
        <mxCell id="STjrseQzjW_MM1RefdrY-5" value="- create(Pessoa): Void" style="text;align=left;verticalAlign=top;spacingLeft=4;spacingRight=4;overflow=hidden;rotatable=0;points=[[0,0.5],[1,0.5]];portConstraint=eastwest;rounded=0;shadow=0;html=0;" parent="cG4yYEKGRYoJy5BFDzFy-5" vertex="1">
          <mxGeometry y="286" width="300" height="26" as="geometry" />
        </mxCell>
        <mxCell id="STjrseQzjW_MM1RefdrY-18" value="- update(Long, PessoaUpdateDto): Void" style="text;align=left;verticalAlign=top;spacingLeft=4;spacingRight=4;overflow=hidden;rotatable=0;points=[[0,0.5],[1,0.5]];portConstraint=eastwest;rounded=0;shadow=0;html=0;" parent="cG4yYEKGRYoJy5BFDzFy-5" vertex="1">
          <mxGeometry y="312" width="300" height="26" as="geometry" />
        </mxCell>
        <mxCell id="STjrseQzjW_MM1RefdrY-19" value="- delete(Long): Void" style="text;align=left;verticalAlign=top;spacingLeft=4;spacingRight=4;overflow=hidden;rotatable=0;points=[[0,0.5],[1,0.5]];portConstraint=eastwest;rounded=0;shadow=0;html=0;" parent="cG4yYEKGRYoJy5BFDzFy-5" vertex="1">
          <mxGeometry y="338" width="300" height="26" as="geometry" />
        </mxCell>
        <mxCell id="STjrseQzjW_MM1RefdrY-6" value="- login(String, String): boolean" style="text;align=left;verticalAlign=top;spacingLeft=4;spacingRight=4;overflow=hidden;rotatable=0;points=[[0,0.5],[1,0.5]];portConstraint=eastwest;rounded=0;shadow=0;html=0;" parent="cG4yYEKGRYoJy5BFDzFy-5" vertex="1">
          <mxGeometry y="364" width="300" height="26" as="geometry" />
        </mxCell>
        <mxCell id="STjrseQzjW_MM1RefdrY-25" value="- generate(Long, LocalDate, LocalDate): RelatorioDto" style="text;align=left;verticalAlign=top;spacingLeft=4;spacingRight=4;overflow=hidden;rotatable=0;points=[[0,0.5],[1,0.5]];portConstraint=eastwest;rounded=0;shadow=0;html=0;" parent="cG4yYEKGRYoJy5BFDzFy-5" vertex="1">
          <mxGeometry y="390" width="300" height="26" as="geometry" />
        </mxCell>
        <mxCell id="y1dbTIo-UcdsSL2UEVHJ-23" style="edgeStyle=orthogonalEdgeStyle;shape=connector;rounded=0;orthogonalLoop=1;jettySize=auto;html=1;strokeColor=default;align=center;verticalAlign=middle;fontFamily=Helvetica;fontSize=11;fontColor=default;labelBackgroundColor=default;endArrow=classic;entryX=0.5;entryY=1;entryDx=0;entryDy=0;" parent="WIyWlLk6GJQsqaUBKTNV-1" source="cG4yYEKGRYoJy5BFDzFy-17" target="cG4yYEKGRYoJy5BFDzFy-5" edge="1">
          <mxGeometry relative="1" as="geometry">
            <mxPoint x="-180" y="320" as="targetPoint" />
          </mxGeometry>
        </mxCell>
        <mxCell id="0lct7mTjgLrh3pyMlzWK-13" value="1" style="edgeLabel;html=1;align=center;verticalAlign=middle;resizable=0;points=[];" parent="y1dbTIo-UcdsSL2UEVHJ-23" vertex="1" connectable="0">
          <mxGeometry x="-0.7294" y="2" relative="1" as="geometry">
            <mxPoint as="offset" />
          </mxGeometry>
        </mxCell>
        <mxCell id="0lct7mTjgLrh3pyMlzWK-14" value="Possui" style="edgeLabel;html=1;align=center;verticalAlign=middle;resizable=0;points=[];" parent="y1dbTIo-UcdsSL2UEVHJ-23" vertex="1" connectable="0">
          <mxGeometry x="0.0462" relative="1" as="geometry">
            <mxPoint as="offset" />
          </mxGeometry>
        </mxCell>
        <mxCell id="0lct7mTjgLrh3pyMlzWK-15" value="1..*" style="edgeLabel;html=1;align=center;verticalAlign=middle;resizable=0;points=[];" parent="y1dbTIo-UcdsSL2UEVHJ-23" vertex="1" connectable="0">
          <mxGeometry x="0.5743" relative="1" as="geometry">
            <mxPoint as="offset" />
          </mxGeometry>
        </mxCell>
        <mxCell id="cG4yYEKGRYoJy5BFDzFy-17" value="PlanoAlimentar" style="swimlane;fontStyle=2;align=center;verticalAlign=top;childLayout=stackLayout;horizontal=1;startSize=26;horizontalStack=0;resizeParent=1;resizeLast=0;collapsible=1;marginBottom=0;rounded=0;shadow=0;strokeWidth=1;" parent="WIyWlLk6GJQsqaUBKTNV-1" vertex="1">
          <mxGeometry x="60" y="510" width="360" height="260" as="geometry">
            <mxRectangle x="230" y="140" width="160" height="26" as="alternateBounds" />
          </mxGeometry>
        </mxCell>
        <mxCell id="cG4yYEKGRYoJy5BFDzFy-18" value="- pessoa: Pessoa" style="text;align=left;verticalAlign=top;spacingLeft=4;spacingRight=4;overflow=hidden;rotatable=0;points=[[0,0.5],[1,0.5]];portConstraint=eastwest;" parent="cG4yYEKGRYoJy5BFDzFy-17" vertex="1">
          <mxGeometry y="26" width="360" height="26" as="geometry" />
        </mxCell>
        <mxCell id="cG4yYEKGRYoJy5BFDzFy-19" value="- refeicoes: List&lt;Refeicao&gt;" style="text;align=left;verticalAlign=top;spacingLeft=4;spacingRight=4;overflow=hidden;rotatable=0;points=[[0,0.5],[1,0.5]];portConstraint=eastwest;rounded=0;shadow=0;html=0;" parent="cG4yYEKGRYoJy5BFDzFy-17" vertex="1">
          <mxGeometry y="52" width="360" height="26" as="geometry" />
        </mxCell>
        <mxCell id="cG4yYEKGRYoJy5BFDzFy-20" value="- dataInicio: LocalDate" style="text;align=left;verticalAlign=top;spacingLeft=4;spacingRight=4;overflow=hidden;rotatable=0;points=[[0,0.5],[1,0.5]];portConstraint=eastwest;rounded=0;shadow=0;html=0;" parent="cG4yYEKGRYoJy5BFDzFy-17" vertex="1">
          <mxGeometry y="78" width="360" height="26" as="geometry" />
        </mxCell>
        <mxCell id="cG4yYEKGRYoJy5BFDzFy-21" value="- dataFim: LocalDate" style="text;align=left;verticalAlign=top;spacingLeft=4;spacingRight=4;overflow=hidden;rotatable=0;points=[[0,0.5],[1,0.5]];portConstraint=eastwest;rounded=0;shadow=0;html=0;" parent="cG4yYEKGRYoJy5BFDzFy-17" vertex="1">
          <mxGeometry y="104" width="360" height="26" as="geometry" />
        </mxCell>
        <mxCell id="cG4yYEKGRYoJy5BFDzFy-22" value="- observacoes: String" style="text;align=left;verticalAlign=top;spacingLeft=4;spacingRight=4;overflow=hidden;rotatable=0;points=[[0,0.5],[1,0.5]];portConstraint=eastwest;rounded=0;shadow=0;html=0;" parent="cG4yYEKGRYoJy5BFDzFy-17" vertex="1">
          <mxGeometry y="130" width="360" height="26" as="geometry" />
        </mxCell>
        <mxCell id="STjrseQzjW_MM1RefdrY-13" value="" style="endArrow=none;html=1;rounded=0;entryX=0.995;entryY=0.987;entryDx=0;entryDy=0;entryPerimeter=0;" parent="cG4yYEKGRYoJy5BFDzFy-17" target="cG4yYEKGRYoJy5BFDzFy-22" edge="1">
          <mxGeometry relative="1" as="geometry">
            <mxPoint y="156" as="sourcePoint" />
            <mxPoint x="160" y="156" as="targetPoint" />
          </mxGeometry>
        </mxCell>
        <mxCell id="STjrseQzjW_MM1RefdrY-14" value="- create(PlanoAlimentarCreateDto): PlanoAlimentarResponseDto" style="text;align=left;verticalAlign=top;spacingLeft=4;spacingRight=4;overflow=hidden;rotatable=0;points=[[0,0.5],[1,0.5]];portConstraint=eastwest;rounded=0;shadow=0;html=0;" parent="cG4yYEKGRYoJy5BFDzFy-17" vertex="1">
          <mxGeometry y="156" width="360" height="26" as="geometry" />
        </mxCell>
        <mxCell id="STjrseQzjW_MM1RefdrY-15" value="- findAll(): List&lt;PlanoAlimentarResponseDto&gt;" style="text;align=left;verticalAlign=top;spacingLeft=4;spacingRight=4;overflow=hidden;rotatable=0;points=[[0,0.5],[1,0.5]];portConstraint=eastwest;rounded=0;shadow=0;html=0;" parent="cG4yYEKGRYoJy5BFDzFy-17" vertex="1">
          <mxGeometry y="182" width="360" height="26" as="geometry" />
        </mxCell>
        <mxCell id="STjrseQzjW_MM1RefdrY-16" value="- update(Long, PlanoAlimentarUpdateDto): Void" style="text;align=left;verticalAlign=top;spacingLeft=4;spacingRight=4;overflow=hidden;rotatable=0;points=[[0,0.5],[1,0.5]];portConstraint=eastwest;rounded=0;shadow=0;html=0;" parent="cG4yYEKGRYoJy5BFDzFy-17" vertex="1">
          <mxGeometry y="208" width="360" height="26" as="geometry" />
        </mxCell>
        <mxCell id="STjrseQzjW_MM1RefdrY-17" value="- delete(Long): Void" style="text;align=left;verticalAlign=top;spacingLeft=4;spacingRight=4;overflow=hidden;rotatable=0;points=[[0,0.5],[1,0.5]];portConstraint=eastwest;rounded=0;shadow=0;html=0;" parent="cG4yYEKGRYoJy5BFDzFy-17" vertex="1">
          <mxGeometry y="234" width="360" height="26" as="geometry" />
        </mxCell>
        <mxCell id="0lct7mTjgLrh3pyMlzWK-9" style="edgeStyle=orthogonalEdgeStyle;rounded=0;orthogonalLoop=1;jettySize=auto;html=1;" parent="WIyWlLk6GJQsqaUBKTNV-1" source="cG4yYEKGRYoJy5BFDzFy-33" target="cG4yYEKGRYoJy5BFDzFy-17" edge="1">
          <mxGeometry relative="1" as="geometry" />
        </mxCell>
        <mxCell id="0lct7mTjgLrh3pyMlzWK-10" value="Possui" style="edgeLabel;html=1;align=center;verticalAlign=middle;resizable=0;points=[];" parent="0lct7mTjgLrh3pyMlzWK-9" vertex="1" connectable="0">
          <mxGeometry x="0.0094" y="1" relative="1" as="geometry">
            <mxPoint as="offset" />
          </mxGeometry>
        </mxCell>
        <mxCell id="0lct7mTjgLrh3pyMlzWK-11" value="1..*" style="edgeLabel;html=1;align=center;verticalAlign=middle;resizable=0;points=[];" parent="0lct7mTjgLrh3pyMlzWK-9" vertex="1" connectable="0">
          <mxGeometry x="0.8754" y="-1" relative="1" as="geometry">
            <mxPoint as="offset" />
          </mxGeometry>
        </mxCell>
        <mxCell id="0lct7mTjgLrh3pyMlzWK-12" value="1" style="edgeLabel;html=1;align=center;verticalAlign=middle;resizable=0;points=[];" parent="0lct7mTjgLrh3pyMlzWK-9" vertex="1" connectable="0">
          <mxGeometry x="-0.9435" y="1" relative="1" as="geometry">
            <mxPoint as="offset" />
          </mxGeometry>
        </mxCell>
        <mxCell id="cG4yYEKGRYoJy5BFDzFy-33" value="Refeicao" style="swimlane;fontStyle=2;align=center;verticalAlign=top;childLayout=stackLayout;horizontal=1;startSize=26;horizontalStack=0;resizeParent=1;resizeLast=0;collapsible=1;marginBottom=0;rounded=0;shadow=0;strokeWidth=1;" parent="WIyWlLk6GJQsqaUBKTNV-1" vertex="1">
          <mxGeometry x="712.5" y="510" width="335" height="260" as="geometry">
            <mxRectangle x="230" y="140" width="160" height="26" as="alternateBounds" />
          </mxGeometry>
        </mxCell>
        <mxCell id="cG4yYEKGRYoJy5BFDzFy-34" value="- pessoa: Pessoa" style="text;align=left;verticalAlign=top;spacingLeft=4;spacingRight=4;overflow=hidden;rotatable=0;points=[[0,0.5],[1,0.5]];portConstraint=eastwest;" parent="cG4yYEKGRYoJy5BFDzFy-33" vertex="1">
          <mxGeometry y="26" width="335" height="26" as="geometry" />
        </mxCell>
        <mxCell id="cG4yYEKGRYoJy5BFDzFy-35" value="- itens: List&lt;ItemAlimento&gt;" style="text;align=left;verticalAlign=top;spacingLeft=4;spacingRight=4;overflow=hidden;rotatable=0;points=[[0,0.5],[1,0.5]];portConstraint=eastwest;rounded=0;shadow=0;html=0;" parent="cG4yYEKGRYoJy5BFDzFy-33" vertex="1">
          <mxGeometry y="52" width="335" height="26" as="geometry" />
        </mxCell>
        <mxCell id="0lct7mTjgLrh3pyMlzWK-5" value="- planoAlimentar: PlanoAlimentar" style="text;align=left;verticalAlign=top;spacingLeft=4;spacingRight=4;overflow=hidden;rotatable=0;points=[[0,0.5],[1,0.5]];portConstraint=eastwest;rounded=0;shadow=0;html=0;" parent="cG4yYEKGRYoJy5BFDzFy-33" vertex="1">
          <mxGeometry y="78" width="335" height="26" as="geometry" />
        </mxCell>
        <mxCell id="cG4yYEKGRYoJy5BFDzFy-36" value="- data: LocalDateTime" style="text;align=left;verticalAlign=top;spacingLeft=4;spacingRight=4;overflow=hidden;rotatable=0;points=[[0,0.5],[1,0.5]];portConstraint=eastwest;rounded=0;shadow=0;html=0;" parent="cG4yYEKGRYoJy5BFDzFy-33" vertex="1">
          <mxGeometry y="104" width="335" height="26" as="geometry" />
        </mxCell>
        <mxCell id="cG4yYEKGRYoJy5BFDzFy-37" value="- tipo: Tipo" style="text;align=left;verticalAlign=top;spacingLeft=4;spacingRight=4;overflow=hidden;rotatable=0;points=[[0,0.5],[1,0.5]];portConstraint=eastwest;rounded=0;shadow=0;html=0;" parent="cG4yYEKGRYoJy5BFDzFy-33" vertex="1">
          <mxGeometry y="130" width="335" height="26" as="geometry" />
        </mxCell>
        <mxCell id="STjrseQzjW_MM1RefdrY-24" value="" style="endArrow=none;html=1;rounded=0;entryX=1;entryY=0.966;entryDx=0;entryDy=0;entryPerimeter=0;" parent="cG4yYEKGRYoJy5BFDzFy-33" target="cG4yYEKGRYoJy5BFDzFy-37" edge="1">
          <mxGeometry relative="1" as="geometry">
            <mxPoint y="156" as="sourcePoint" />
            <mxPoint x="160" y="156" as="targetPoint" />
          </mxGeometry>
        </mxCell>
        <mxCell id="STjrseQzjW_MM1RefdrY-26" value="- create(RefeicaoCreateDto): RefeicaoResponseDto" style="text;align=left;verticalAlign=top;spacingLeft=4;spacingRight=4;overflow=hidden;rotatable=0;points=[[0,0.5],[1,0.5]];portConstraint=eastwest;rounded=0;shadow=0;html=0;" parent="cG4yYEKGRYoJy5BFDzFy-33" vertex="1">
          <mxGeometry y="156" width="335" height="26" as="geometry" />
        </mxCell>
        <mxCell id="STjrseQzjW_MM1RefdrY-29" value="- delete(Long): Void" style="text;align=left;verticalAlign=top;spacingLeft=4;spacingRight=4;overflow=hidden;rotatable=0;points=[[0,0.5],[1,0.5]];portConstraint=eastwest;rounded=0;shadow=0;html=0;" parent="cG4yYEKGRYoJy5BFDzFy-33" vertex="1">
          <mxGeometry y="182" width="335" height="26" as="geometry" />
        </mxCell>
        <mxCell id="STjrseQzjW_MM1RefdrY-28" value="- update(Long, RefeicaoUpdateDto): Void" style="text;align=left;verticalAlign=top;spacingLeft=4;spacingRight=4;overflow=hidden;rotatable=0;points=[[0,0.5],[1,0.5]];portConstraint=eastwest;rounded=0;shadow=0;html=0;" parent="cG4yYEKGRYoJy5BFDzFy-33" vertex="1">
          <mxGeometry y="208" width="335" height="26" as="geometry" />
        </mxCell>
        <mxCell id="STjrseQzjW_MM1RefdrY-27" value="- findAll(): List&lt;RefeicaoResponseDto&gt;" style="text;align=left;verticalAlign=top;spacingLeft=4;spacingRight=4;overflow=hidden;rotatable=0;points=[[0,0.5],[1,0.5]];portConstraint=eastwest;rounded=0;shadow=0;html=0;" parent="cG4yYEKGRYoJy5BFDzFy-33" vertex="1">
          <mxGeometry y="234" width="335" height="26" as="geometry" />
        </mxCell>
        <mxCell id="y1dbTIo-UcdsSL2UEVHJ-24" value="" style="endArrow=none;html=1;rounded=0;strokeColor=default;align=center;verticalAlign=middle;fontFamily=Helvetica;fontSize=11;fontColor=default;labelBackgroundColor=default;edgeStyle=orthogonalEdgeStyle;exitX=1;exitY=0.5;exitDx=0;exitDy=0;entryX=0;entryY=0.5;entryDx=0;entryDy=0;" parent="WIyWlLk6GJQsqaUBKTNV-1" source="cG4yYEKGRYoJy5BFDzFy-10" target="cG4yYEKGRYoJy5BFDzFy-0" edge="1">
          <mxGeometry width="50" height="50" relative="1" as="geometry">
            <mxPoint x="350" y="220" as="sourcePoint" />
            <mxPoint x="400" y="170" as="targetPoint" />
          </mxGeometry>
        </mxCell>
        <mxCell id="y1dbTIo-UcdsSL2UEVHJ-35" value="Possui" style="edgeLabel;html=1;align=center;verticalAlign=middle;resizable=0;points=[];fontFamily=Helvetica;fontSize=11;fontColor=default;labelBackgroundColor=default;" parent="y1dbTIo-UcdsSL2UEVHJ-24" vertex="1" connectable="0">
          <mxGeometry y="-1" relative="1" as="geometry">
            <mxPoint as="offset" />
          </mxGeometry>
        </mxCell>
        <mxCell id="y1dbTIo-UcdsSL2UEVHJ-36" value="1..*" style="edgeLabel;html=1;align=center;verticalAlign=middle;resizable=0;points=[];fontFamily=Helvetica;fontSize=11;fontColor=default;labelBackgroundColor=default;" parent="y1dbTIo-UcdsSL2UEVHJ-24" vertex="1" connectable="0">
          <mxGeometry x="-0.9173" y="-1" relative="1" as="geometry">
            <mxPoint as="offset" />
          </mxGeometry>
        </mxCell>
        <mxCell id="y1dbTIo-UcdsSL2UEVHJ-37" value="1..*" style="edgeLabel;html=1;align=center;verticalAlign=middle;resizable=0;points=[];fontFamily=Helvetica;fontSize=11;fontColor=default;labelBackgroundColor=default;" parent="y1dbTIo-UcdsSL2UEVHJ-24" vertex="1" connectable="0">
          <mxGeometry x="0.9166" y="-2" relative="1" as="geometry">
            <mxPoint as="offset" />
          </mxGeometry>
        </mxCell>
      </root>
    </mxGraphModel>
  </diagram>
</mxfile>
